<svg width="58" height="24" viewBox="0 0 58 24" fill="none" xmlns="http://www.w3.org/2000/svg">
<path d="M7.76915 15.8406H0.40528V14.9523C1.09102 14.9523 1.58973 14.8977 1.90143 14.7886C2.21313 14.664 2.40794 14.438 2.48586 14.1107C2.57937 13.7678 2.62613 13.2613 2.62613 12.5912V3.77791C2.62613 3.15451 2.57937 2.67138 2.48586 2.32852C2.40794 1.98565 2.21313 1.74408 1.90143 1.60382C1.58973 1.44797 1.09102 1.37004 0.40528 1.37004V0.481705H7.8159V1.37004C7.11458 1.37004 6.60028 1.44797 6.273 1.60382C5.9613 1.74408 5.76649 1.99344 5.68856 2.35189C5.62622 2.69476 5.59505 3.1701 5.59505 3.77791V12.5912C5.59505 13.2457 5.63402 13.7445 5.71194 14.0873C5.80545 14.4302 6.00026 14.664 6.29637 14.7886C6.60807 14.8977 7.099 14.9523 7.76915 14.9523V15.8406ZM24.1501 16.0043H22.163L12.9523 3.77791H12.1809L11.5731 2.72593C11.2926 2.33631 11.0354 2.04799 10.8016 1.86097C10.5834 1.67395 10.3497 1.54927 10.1003 1.48693C9.86653 1.40901 9.57821 1.37004 9.23535 1.37004V0.481705H14.2381L22.6072 11.5859H22.7241V4.38572C22.7241 3.73116 22.6851 3.18569 22.6072 2.74931C22.5293 2.29735 22.3345 1.95448 22.0228 1.7207C21.7266 1.48693 21.2201 1.37004 20.5032 1.37004V0.481705H26.2541V1.37004C25.6151 1.37004 25.1397 1.48693 24.828 1.7207C24.5319 1.95448 24.3449 2.30514 24.267 2.77269C24.1891 3.22465 24.1501 3.77791 24.1501 4.43248V16.0043ZM14.9628 15.8406H9.23535V14.9523C9.85874 14.9523 10.3263 14.7964 10.638 14.4847C10.9497 14.1575 11.1601 13.7055 11.2692 13.1289C11.3783 12.5522 11.4328 11.8743 11.4328 11.095V2.11812H12.8355V12.1704C12.8355 12.9496 12.89 13.5419 12.9991 13.9471C13.1082 14.3367 13.3186 14.6016 13.6303 14.7419C13.942 14.8822 14.3862 14.9523 14.9628 14.9523V15.8406ZM35.0998 15.8406H27.6425V14.9523C28.2347 14.9523 28.6789 14.9055 28.975 14.812C29.2867 14.7185 29.4971 14.5159 29.6062 14.2042C29.7153 13.8925 29.7698 13.4094 29.7698 12.7548V3.1701C29.7698 2.70255 29.723 2.3441 29.6295 2.09474C29.536 1.8298 29.3334 1.64278 29.0217 1.53368C28.7256 1.42459 28.2659 1.37004 27.6425 1.37004V0.481705H34.5622C35.6843 0.481705 36.7051 0.598591 37.6246 0.832365C38.5597 1.06614 39.3 1.47135 39.8454 2.04799C40.3909 2.60904 40.6636 3.38829 40.6636 4.38572C40.6636 5.24289 40.4766 5.94421 40.1026 6.48969C39.7441 7.01957 39.2766 7.43257 38.6999 7.72869C38.1389 8.0248 37.5311 8.25078 36.8765 8.40663V8.52352C37.1259 8.67936 37.3986 8.93652 37.6947 9.29497C38.0064 9.65342 38.4116 10.1911 38.9103 10.908C39.4091 11.6093 40.0792 12.56 40.9208 13.76C41.2948 14.2743 41.6611 14.6016 42.0195 14.7419C42.3936 14.8822 42.8455 14.9523 43.3754 14.9523V15.8406H38.6064C38.0454 14.8899 37.5778 14.1029 37.2038 13.4795C36.8298 12.8561 36.5103 12.3418 36.2453 11.9366C35.9804 11.5158 35.7388 11.1418 35.5206 10.8145C35.318 10.4716 35.0998 10.121 34.8661 9.76252C34.6479 9.40406 34.4375 9.18587 34.2349 9.10795C34.0323 9.01444 33.7284 8.96769 33.3232 8.96769H32.7855V12.7782C32.7855 13.4016 32.84 13.8769 32.9491 14.2042C33.0582 14.5159 33.2764 14.7185 33.6037 14.812C33.931 14.9055 34.4297 14.9523 35.0998 14.9523V15.8406ZM32.7855 7.9157L33.6738 7.93908C34.4842 7.89233 35.17 7.75985 35.731 7.54167C36.3077 7.32348 36.744 6.97282 37.0402 6.48969C37.3519 6.00655 37.5077 5.34419 37.5077 4.50261C37.5077 3.59868 37.2506 2.88178 36.7362 2.35189C36.2219 1.80642 35.3882 1.53368 34.2349 1.53368C33.9855 1.53368 33.7362 1.54148 33.4868 1.55706C33.253 1.55706 33.0192 1.57265 32.7855 1.60382V7.9157ZM57.0775 15.8406H44.0095V14.9523C44.5862 14.9523 45.0303 14.9133 45.342 14.8354C45.6693 14.7419 45.8953 14.5549 46.02 14.2743C46.1602 13.9938 46.2304 13.5574 46.2304 12.9652V3.52076C46.2304 2.92853 46.1758 2.48436 46.0667 2.18825C45.9732 1.87655 45.7628 1.66616 45.4355 1.55706C45.1239 1.44797 44.6485 1.39342 44.0095 1.39342V0.481705H56.8437L56.984 4.57274H55.9554C55.8463 3.84025 55.6826 3.2714 55.4644 2.8662C55.2618 2.46099 54.9268 2.18046 54.4592 2.02461C54.0072 1.86876 53.3293 1.79084 52.4254 1.79084H49.1993V7.37802H51.537C52.2851 7.37802 52.8384 7.33127 53.1968 7.23776C53.5709 7.14425 53.8124 6.94944 53.9215 6.65333C54.0462 6.34163 54.1085 5.88187 54.1085 5.27406H55.067V10.6742H54.1085C54.1085 10.0197 54.0462 9.54433 53.9215 9.24821C53.8124 8.93652 53.5709 8.7417 53.1968 8.66378C52.8384 8.57027 52.2851 8.52352 51.537 8.52352H49.1993V14.5549H52.0513C52.8773 14.5549 53.5475 14.5159 54.0618 14.438C54.5761 14.3445 54.9891 14.1808 55.3008 13.9471C55.6125 13.7133 55.8696 13.386 56.0722 12.9652C56.2749 12.5444 56.4775 11.9989 56.6801 11.3288H57.6619L57.0775 15.8406Z" fill="#002550"/>
<line x1="0.100586" y1="21.7708" x2="4.84911" y2="21.7708" stroke="#01244A" stroke-width="0.182636"/>
<path d="M7.55765 22.8621V22.6581H7.9058V20.9188H7.55765V20.7147H8.56928V20.9188H8.24111V22.6581H8.56928V22.8621H7.55765ZM8.95282 22.8621V22.6581H9.29669V20.9188H8.95282V20.7147H9.72331L10.7378 22.4826V20.9188H10.3896V20.7147H11.3371V20.9188H11.0103V22.8621H10.6294L9.56921 21.0186V22.6581H9.89596V22.8621H8.95282ZM11.6992 22.8621V22.6581H12.0431V20.9188H11.6992V20.7147H12.4697L13.4842 22.4826V20.9188H13.136V20.7147H14.0835V20.9188H13.7567V22.8621H13.3757L12.3156 21.0186V22.6581H12.6423V22.8621H11.6992ZM15.5328 22.9006C15.4035 22.9006 15.2827 22.8802 15.1704 22.8393C15.0582 22.7974 14.9616 22.7399 14.8808 22.6666C14.8028 22.5953 14.7357 22.5121 14.6796 22.4169C14.6244 22.3209 14.584 22.2196 14.5583 22.113C14.5317 22.0074 14.5184 21.8985 14.5184 21.7863C14.5184 21.5542 14.5721 21.3444 14.6796 21.157C14.7367 21.0581 14.8047 20.9735 14.8836 20.9031C14.9635 20.8317 15.0577 20.7751 15.1661 20.7333C15.2803 20.6914 15.4025 20.6705 15.5328 20.6705C15.6622 20.6705 15.783 20.6914 15.8953 20.7333C16.0084 20.7751 16.105 20.8327 16.1849 20.9059C16.2629 20.9773 16.3295 21.061 16.3847 21.157C16.4398 21.2522 16.4807 21.353 16.5074 21.4595C16.5331 21.5661 16.5459 21.675 16.5459 21.7863C16.5459 22.0184 16.4921 22.2281 16.3847 22.4155C16.3276 22.5144 16.2596 22.5991 16.1806 22.6695C16.1017 22.7399 16.008 22.7955 15.8995 22.8364C15.7873 22.8792 15.6651 22.9006 15.5328 22.9006ZM15.5328 22.7009C15.6327 22.7009 15.7245 22.6757 15.8082 22.6253C15.8929 22.5739 15.9623 22.504 16.0165 22.4155C16.0698 22.3299 16.1102 22.2334 16.1378 22.1259C16.1664 22.0174 16.1806 21.9052 16.1806 21.7891C16.1806 21.6959 16.1716 21.6051 16.1535 21.5166C16.1364 21.4281 16.1098 21.3459 16.0736 21.2698C15.9947 21.1023 15.8905 20.9863 15.7611 20.9216C15.6917 20.8874 15.6156 20.8702 15.5328 20.8702C15.433 20.8702 15.3412 20.8959 15.2575 20.9473C15.1737 20.9977 15.1043 21.0671 15.0491 21.1556C14.9959 21.2422 14.955 21.3397 14.9264 21.4481C14.8979 21.5556 14.8836 21.6674 14.8836 21.7834C14.8836 21.9803 14.9198 22.1544 14.9921 22.3056C15.0301 22.3875 15.0743 22.4574 15.1248 22.5154C15.1761 22.5725 15.2361 22.6172 15.3045 22.6495C15.3749 22.6838 15.451 22.7009 15.5328 22.7009ZM17.9168 22.9121C17.8664 22.9121 17.8255 22.8968 17.7941 22.8664C17.7637 22.836 17.7356 22.7841 17.7099 22.7109L17.0664 20.9188H16.7397V20.7147H17.7627V20.9188H17.4616L17.981 22.444L18.4847 20.9188H18.1066V20.7147H19.074V20.9188H18.7272L18.1123 22.7109C18.0942 22.7622 18.0766 22.8022 18.0595 22.8307C18.0433 22.8593 18.0238 22.8797 18.001 22.8921C17.9791 22.9054 17.951 22.9121 17.9168 22.9121ZM18.8554 22.8621V22.6581H19.1122L19.8642 20.7147H20.2023L20.9657 22.6581H21.2054V22.8621H20.2822V22.6581H20.6004L20.4021 22.143H19.5774L19.3904 22.6581H19.75V22.8621H18.8554ZM19.6444 21.9618H20.3307L19.9783 20.9944L19.6444 21.9618ZM21.6802 22.8621V22.6581H22.0127V20.9188H21.4662V21.5822H21.2008V20.7147H23.1499V21.5822H22.8831V20.9188H22.3494V22.6581H22.6904V22.8621H21.6802ZM23.5348 22.8621V22.6581H23.883V20.9188H23.5348V20.7147H24.5465V20.9188H24.2183V22.6581H24.5465V22.8621H23.5348ZM26.0173 22.9006C25.8879 22.9006 25.7671 22.8802 25.6548 22.8393C25.5426 22.7974 25.446 22.7399 25.3652 22.6666C25.2872 22.5953 25.2201 22.5121 25.164 22.4169C25.1088 22.3209 25.0684 22.2196 25.0427 22.113C25.0161 22.0074 25.0028 21.8985 25.0028 21.7863C25.0028 21.5542 25.0565 21.3444 25.164 21.157C25.2211 21.0581 25.2891 20.9735 25.368 20.9031C25.448 20.8317 25.5421 20.7751 25.6506 20.7333C25.7647 20.6914 25.8869 20.6705 26.0173 20.6705C26.1466 20.6705 26.2674 20.6914 26.3797 20.7333C26.4929 20.7751 26.5894 20.8327 26.6693 20.9059C26.7473 20.9773 26.8139 21.061 26.8691 21.157C26.9243 21.2522 26.9652 21.353 26.9918 21.4595C27.0175 21.5661 27.0303 21.675 27.0303 21.7863C27.0303 22.0184 26.9766 22.2281 26.8691 22.4155C26.812 22.5144 26.744 22.5991 26.665 22.6695C26.5861 22.7399 26.4924 22.7955 26.384 22.8364C26.2717 22.8792 26.1495 22.9006 26.0173 22.9006ZM26.0173 22.7009C26.1171 22.7009 26.2089 22.6757 26.2926 22.6253C26.3773 22.5739 26.4467 22.504 26.501 22.4155C26.5542 22.3299 26.5947 22.2334 26.6222 22.1259C26.6508 22.0174 26.665 21.9052 26.665 21.7891C26.665 21.6959 26.656 21.6051 26.6379 21.5166C26.6208 21.4281 26.5942 21.3459 26.558 21.2698C26.4791 21.1023 26.3749 20.9863 26.2456 20.9216C26.1761 20.8874 26.1 20.8702 26.0173 20.8702C25.9174 20.8702 25.8256 20.8959 25.7419 20.9473C25.6582 20.9977 25.5887 21.0671 25.5336 21.1556C25.4803 21.2422 25.4394 21.3397 25.4109 21.4481C25.3823 21.5556 25.368 21.6674 25.368 21.7834C25.368 21.9803 25.4042 22.1544 25.4765 22.3056C25.5145 22.3875 25.5588 22.4574 25.6092 22.5154C25.6605 22.5725 25.7205 22.6172 25.789 22.6495C25.8594 22.6838 25.9355 22.7009 26.0173 22.7009ZM27.4909 22.8621V22.6581H27.8348V20.9188H27.4909V20.7147H28.2614L29.2759 22.4826V20.9188H28.9277V20.7147H29.8752V20.9188H29.5484V22.8621H29.1674L28.1073 21.0186V22.6581H28.434V22.8621H27.4909ZM31.2101 22.8621V22.6581H31.5583V20.9188H31.2101V20.7147H32.2217V20.9188H31.8936V22.6581H32.2217V22.8621H31.2101ZM32.6053 22.8621V22.6581H32.9491V20.9188H32.6053V20.7147H33.3758L34.3902 22.4826V20.9188H34.0421V20.7147H34.9895V20.9188H34.6628V22.8621H34.2818L33.2217 21.0186V22.6581H33.5484V22.8621H32.6053ZM38.1109 22.9092C38.0529 22.9092 38.0001 22.8987 37.9525 22.8778C37.9059 22.8578 37.8664 22.8298 37.8341 22.7936C37.8036 22.7603 37.776 22.7147 37.7513 22.6566C37.7266 22.5986 37.7057 22.5354 37.6885 22.4669C37.6695 22.3889 37.6533 22.3114 37.64 22.2343C37.6315 22.1801 37.6167 22.1301 37.5958 22.0845C37.5749 22.0388 37.5525 22.0036 37.5287 21.9789C37.5059 21.9561 37.4816 21.9366 37.456 21.9204C37.4303 21.9042 37.4089 21.8938 37.3917 21.889C37.3765 21.8852 37.3623 21.8833 37.3489 21.8833H37.0122V22.6581H37.3361V22.8621H36.3288V22.6581H36.6755V20.9188H36.3288V20.7147H37.1492H37.2162C37.279 20.7147 37.3313 20.7157 37.3732 20.7176C37.416 20.7195 37.4697 20.7233 37.5344 20.729C37.6134 20.7366 37.6781 20.7471 37.7285 20.7604C37.7798 20.7737 37.8369 20.7946 37.8997 20.8232C37.9596 20.8507 38.0072 20.884 38.0424 20.923C38.0785 20.9611 38.109 21.011 38.1337 21.0729C38.1575 21.1328 38.1694 21.2022 38.1694 21.2812C38.1694 21.4476 38.1175 21.5718 38.0139 21.6536C37.9634 21.6926 37.9087 21.7244 37.8498 21.7492C37.7908 21.773 37.7199 21.7934 37.6372 21.8105C37.6923 21.8219 37.7385 21.8376 37.7756 21.8576C37.8127 21.8776 37.8441 21.9038 37.8697 21.9361C37.8935 21.9675 37.9125 22.0008 37.9268 22.036C37.942 22.0712 37.9577 22.1178 37.9739 22.1758C37.9863 22.2224 38.0039 22.2995 38.0267 22.407C38.0324 22.4393 38.041 22.4726 38.0524 22.5068C38.0638 22.5411 38.0752 22.5677 38.0866 22.5867C38.099 22.6077 38.1147 22.6248 38.1337 22.6381C38.1527 22.6514 38.1741 22.6581 38.1979 22.6581C38.2959 22.6581 38.3449 22.5682 38.3449 22.3884V22.1901H38.5375V22.3998C38.5375 22.7394 38.3953 22.9092 38.1109 22.9092ZM37.1906 21.6693C37.3437 21.6693 37.4678 21.6583 37.563 21.6365C37.6581 21.6136 37.7323 21.5756 37.7856 21.5223C37.8407 21.4681 37.8683 21.3963 37.8683 21.3069C37.8683 21.2298 37.8545 21.1661 37.8269 21.1157C37.7993 21.0652 37.7556 21.0253 37.6957 20.9958C37.6367 20.9682 37.5668 20.9487 37.4859 20.9373C37.406 20.9249 37.3038 20.9188 37.1791 20.9188H37.0122V21.6693H37.1906ZM38.8811 22.8621V22.6581H39.2321V20.9188H38.8811V20.7147H40.8216V21.5409H40.5633V20.9188H39.5674V21.6907H40.0996V21.3397H40.2894V22.2257H40.0996V21.8533H39.5674V22.6581H40.5633V22.0474H40.8216V22.8621H38.8811ZM41.2551 22.8621V22.6581H41.5119L42.2638 20.7147H42.602L43.3654 22.6581H43.6051V22.8621H42.6819V22.6581H43.0001L42.8018 22.143H41.977L41.7901 22.6581H42.1497V22.8621H41.2551ZM42.0441 21.9618H42.7304L42.378 20.9944L42.0441 21.9618ZM43.9544 22.8621V22.6581H44.3011V20.9188H43.9544V20.7147H44.9646V20.9188H44.6378V22.6581H45.444V21.9703H45.7108V22.8621H43.9544ZM46.3697 22.8621V22.6581H46.7022V20.9188H46.1557V21.5822H45.8903V20.7147H47.8394V21.5822H47.5725V20.9188H47.0389V22.6581H47.3799V22.8621H46.3697ZM48.7751 22.8621V22.6581H49.1218V22.0131L48.5054 20.9188H48.2143V20.7147H49.1689V20.9188H48.8421L49.3244 21.8048L49.821 20.9188H49.5028V20.7147H50.3674V20.9188H50.0978L49.4585 22.0203V22.6581H49.7853V22.8621H48.7751Z" fill="#002550"/>
<line x1="53.0649" y1="21.7708" x2="57.8135" y2="21.7708" stroke="#7B3838" stroke-width="0.182636"/>
</svg>
