<svg width="114" height="32" viewBox="0 0 114 32" fill="none" xmlns="http://www.w3.org/2000/svg">
<path d="M16.7928 25.9898C13.4693 29.6211 7.83124 29.8706 4.19994 26.547C0.568635 23.2235 0.319139 17.5855 3.64267 13.9542C6.84641 10.4538 12.4332 9.6928 19.5925 10.7716C19.9776 13.0489 20.0959 15.8816 19.7321 18.6091C19.3392 21.5543 18.4048 24.2284 16.7928 25.9898Z" stroke="white" stroke-width="2.30031"/>
<path d="M14.058 3.92915C17.5388 0.448333 23.1823 0.448333 26.6631 3.92916C30.144 7.40998 30.144 13.0535 26.6631 16.5343C23.3078 19.8897 17.6928 20.4029 10.5883 19.0087C10.3042 16.7165 10.3112 13.8815 10.7953 11.1726C11.3179 8.24775 12.3696 5.61749 14.058 3.92915Z" stroke="white" stroke-width="2.30031"/>
<path d="M51.1286 22H41.8537V20.8811C42.7174 20.8811 43.3455 20.8124 43.7381 20.675C44.1307 20.518 44.3761 20.2334 44.4742 19.8211C44.592 19.3893 44.6509 18.7513 44.6509 17.9073V6.8069C44.6509 6.02172 44.592 5.41321 44.4742 4.98137C44.3761 4.54952 44.1307 4.24527 43.7381 4.0686C43.3455 3.87231 42.7174 3.77416 41.8537 3.77416V2.65529H51.1875V3.77416C50.3041 3.77416 49.6564 3.87231 49.2442 4.0686C48.8516 4.24527 48.6062 4.55934 48.5081 5.01081C48.4295 5.44266 48.3903 6.04135 48.3903 6.8069V17.9073C48.3903 18.7317 48.4394 19.3599 48.5375 19.7917C48.6553 20.2235 48.9006 20.518 49.2736 20.675C49.6662 20.8124 50.2845 20.8811 51.1286 20.8811V22ZM71.7605 22.2061H69.2578L57.6569 6.8069H56.6852L55.9197 5.48192C55.5663 4.99118 55.2424 4.62804 54.948 4.39249C54.6732 4.15694 54.3788 3.9999 54.0647 3.92138C53.7702 3.82324 53.4071 3.77416 52.9753 3.77416V2.65529H59.2763L69.8172 16.6412H69.9644V7.57244C69.9644 6.74801 69.9154 6.06098 69.8172 5.51136C69.7191 4.94211 69.4737 4.51026 69.0811 4.21582C68.7082 3.92138 68.0702 3.77416 67.1673 3.77416V2.65529H74.4105V3.77416C73.6057 3.77416 73.007 3.92138 72.6144 4.21582C72.2415 4.51026 72.0059 4.95192 71.9078 5.5408C71.8096 6.11005 71.7605 6.8069 71.7605 7.63133V22.2061ZM60.189 22H52.9753V20.8811C53.7604 20.8811 54.3493 20.6848 54.7419 20.2922C55.1345 19.88 55.3995 19.3108 55.5369 18.5845C55.6743 17.8582 55.743 17.0043 55.743 16.0229V4.71637H57.5096V17.3773C57.5096 18.3588 57.5783 19.1047 57.7157 19.615C57.8531 20.1058 58.1181 20.4395 58.5107 20.6161C58.9033 20.7928 59.4628 20.8811 60.189 20.8811V22ZM85.5518 22H76.1592V20.8811C76.9051 20.8811 77.4645 20.8222 77.8375 20.7045C78.2301 20.5867 78.4951 20.3315 78.6325 19.9389C78.7699 19.5463 78.8386 18.9378 78.8386 18.1134V6.04135C78.8386 5.45247 78.7797 5.001 78.6619 4.68693C78.5442 4.35323 78.289 4.11768 77.8964 3.98027C77.5234 3.84287 76.9444 3.77416 76.1592 3.77416V2.65529H84.8746C86.2879 2.65529 87.5736 2.80251 88.7318 3.09695C89.9095 3.39139 90.8419 3.90175 91.529 4.62804C92.216 5.3347 92.5595 6.31616 92.5595 7.57244C92.5595 8.65205 92.3239 9.53537 91.8528 10.2224C91.4014 10.8898 90.8125 11.41 90.0862 11.7829C89.3795 12.1559 88.614 12.4405 87.7896 12.6368V12.784C88.1036 12.9803 88.4472 13.3042 88.8201 13.7557C89.2127 14.2072 89.7231 14.8844 90.3512 15.7873C90.9793 16.6706 91.8234 17.868 92.8834 19.3795C93.3545 20.0273 93.8158 20.4395 94.2673 20.6161C94.7384 20.7928 95.3076 20.8811 95.975 20.8811V22H89.9684C89.2618 20.8026 88.6729 19.8113 88.2018 19.0262C87.7307 18.241 87.3283 17.5932 86.9946 17.0829C86.6609 16.5529 86.3566 16.0818 86.0818 15.6695C85.8266 15.2377 85.5518 14.796 85.2574 14.3446C84.9826 13.8931 84.7176 13.6183 84.4624 13.5201C84.2072 13.4024 83.8244 13.3435 83.3141 13.3435H82.6369V18.1428C82.6369 18.928 82.7056 19.5267 82.843 19.9389C82.9804 20.3315 83.2552 20.5867 83.6674 20.7045C84.0796 20.8222 84.7078 20.8811 85.5518 20.8811V22ZM82.6369 12.0185L83.7557 12.0479C84.7765 11.989 85.6402 11.8222 86.3468 11.5474C87.0731 11.2726 87.6227 10.8309 87.9957 10.2224C88.3883 9.61389 88.5846 8.77964 88.5846 7.71966C88.5846 6.58116 88.2607 5.67821 87.6129 5.01081C86.9651 4.32379 85.915 3.98027 84.4624 3.98027C84.1483 3.98027 83.8343 3.99009 83.5202 4.00972C83.2257 4.00972 82.9313 4.02935 82.6369 4.0686V12.0185ZM113.233 22H96.7737V20.8811C97.5 20.8811 98.0594 20.8321 98.452 20.7339C98.8642 20.6161 99.1488 20.3806 99.3059 20.0273C99.4825 19.6739 99.5708 19.1243 99.5708 18.3784V6.48301C99.5708 5.7371 99.5021 5.17766 99.3647 4.8047C99.247 4.41212 98.982 4.14712 98.5698 4.00972C98.1772 3.87231 97.5785 3.80361 96.7737 3.80361V2.65529H112.938L113.115 7.80799H111.82C111.682 6.88541 111.476 6.16894 111.201 5.65858C110.946 5.14822 110.524 4.79489 109.935 4.5986C109.366 4.4023 108.512 4.30416 107.374 4.30416H103.31V11.3413H106.255C107.197 11.3413 107.894 11.2824 108.345 11.1646C108.816 11.0468 109.121 10.8015 109.258 10.4285C109.415 10.0359 109.493 9.45686 109.493 8.69131H110.701V15.4929H109.493C109.493 14.6684 109.415 14.0697 109.258 13.6968C109.121 13.3042 108.816 13.0588 108.345 12.9607C107.894 12.8429 107.197 12.784 106.255 12.784H103.31V20.3806H106.902C107.943 20.3806 108.787 20.3315 109.435 20.2334C110.082 20.1156 110.603 19.9095 110.995 19.615C111.388 19.3206 111.712 18.9084 111.967 18.3784C112.222 17.8484 112.477 17.1614 112.732 16.3173H113.969L113.233 22Z" fill="white"/>
<path d="M50.8648 31.5147V31.2577H51.3033V29.067H50.8648V28.8101H52.1389V29.067H51.7256V31.2577H52.1389V31.5147H50.8648ZM52.622 31.5147V31.2577H53.0551V29.067H52.622V28.8101H53.5924L54.8702 31.0367V29.067H54.4317V28.8101H55.625V29.067H55.2134V31.5147H54.7336L53.3983 29.1928V31.2577H53.8099V31.5147H52.622ZM56.0811 31.5147V31.2577H56.5142V29.067H56.0811V28.8101H57.0515L58.3293 31.0367V29.067H57.8908V28.8101H59.0841V29.067H58.6725V31.5147H58.1927L56.8574 29.1928V31.2577H57.269V31.5147H56.0811ZM60.9096 31.5632C60.7466 31.5632 60.5945 31.5375 60.4531 31.486C60.3117 31.4333 60.1901 31.3608 60.0883 31.2685C59.99 31.1787 59.9056 31.0738 59.8349 30.954C59.7654 30.833 59.7145 30.7054 59.6821 30.5712C59.6486 30.4383 59.6318 30.3011 59.6318 30.1597C59.6318 29.8674 59.6995 29.6032 59.8349 29.3672C59.9068 29.2426 59.9924 29.1359 60.0919 29.0473C60.1925 28.9574 60.3111 28.8861 60.4477 28.8334C60.5915 28.7807 60.7454 28.7543 60.9096 28.7543C61.0725 28.7543 61.2247 28.7807 61.366 28.8334C61.5086 28.8861 61.6302 28.9586 61.7309 29.0509C61.8291 29.1407 61.913 29.2462 61.9825 29.3672C62.0519 29.487 62.1035 29.614 62.137 29.7482C62.1694 29.8823 62.1855 30.0195 62.1855 30.1597C62.1855 30.452 62.1178 30.7162 61.9825 30.9522C61.9106 31.0768 61.8249 31.1835 61.7255 31.2721C61.626 31.3608 61.508 31.4309 61.3714 31.4824C61.2301 31.5363 61.0761 31.5632 60.9096 31.5632ZM60.9096 31.3117C61.0354 31.3117 61.151 31.2799 61.2564 31.2164C61.363 31.1517 61.4505 31.0636 61.5188 30.9522C61.5859 30.8444 61.6368 30.7228 61.6716 30.5874C61.7075 30.4508 61.7255 30.3095 61.7255 30.1633C61.7255 30.0459 61.7141 29.9315 61.6913 29.82C61.6698 29.7086 61.6362 29.605 61.5907 29.5091C61.4912 29.2983 61.3601 29.1521 61.1971 29.0706C61.1097 29.0275 61.0138 29.0059 60.9096 29.0059C60.7838 29.0059 60.6682 29.0383 60.5627 29.103C60.4573 29.1665 60.3698 29.2539 60.3003 29.3654C60.2333 29.4744 60.1817 29.5972 60.1458 29.7338C60.1099 29.8692 60.0919 30.0099 60.0919 30.1561C60.0919 30.4041 60.1374 30.6234 60.2285 30.8138C60.2764 30.9169 60.3321 31.0049 60.3956 31.078C60.4603 31.1499 60.5358 31.2062 60.622 31.247C60.7107 31.2901 60.8065 31.3117 60.9096 31.3117ZM63.9122 31.5776C63.8487 31.5776 63.7972 31.5585 63.7576 31.5201C63.7193 31.4818 63.684 31.4165 63.6516 31.3242L62.8411 29.067H62.4296V28.8101H63.7181V29.067H63.3389L63.9931 30.9882L64.6275 29.067H64.1512V28.8101H65.3697V29.067H64.933L64.1584 31.3242C64.1356 31.3889 64.1135 31.4392 64.0919 31.4752C64.0715 31.5111 64.047 31.5369 64.0182 31.5525C63.9907 31.5692 63.9553 31.5776 63.9122 31.5776ZM65.0943 31.5147V31.2577H65.4178L66.3649 28.8101H66.7908L67.7523 31.2577H68.0542V31.5147H66.8915V31.2577H67.2922L67.0424 30.609H66.0037L65.7683 31.2577H66.2211V31.5147H65.0943ZM66.0882 30.3807H66.9526L66.5087 29.1623L66.0882 30.3807ZM68.6523 31.5147V31.2577H69.071V29.067H68.3827V29.9027H68.0484V28.8101H70.5033V29.9027H70.1673V29.067H69.4951V31.2577H69.9246V31.5147H68.6523ZM70.9882 31.5147V31.2577H71.4267V29.067H70.9882V28.8101H72.2623V29.067H71.849V31.2577H72.2623V31.5147H70.9882ZM74.1148 31.5632C73.9519 31.5632 73.7997 31.5375 73.6583 31.486C73.517 31.4333 73.3954 31.3608 73.2935 31.2685C73.1953 31.1787 73.1108 31.0738 73.0401 30.954C72.9706 30.833 72.9197 30.7054 72.8874 30.5712C72.8538 30.4383 72.8371 30.3011 72.8371 30.1597C72.8371 29.8674 72.9047 29.6032 73.0401 29.3672C73.112 29.2426 73.1977 29.1359 73.2971 29.0473C73.3978 28.9574 73.5164 28.8861 73.6529 28.8334C73.7967 28.7807 73.9507 28.7543 74.1148 28.7543C74.2777 28.7543 74.4299 28.7807 74.5713 28.8334C74.7138 28.8861 74.8354 28.9586 74.9361 29.0509C75.0343 29.1407 75.1182 29.2462 75.1877 29.3672C75.2572 29.487 75.3087 29.614 75.3422 29.7482C75.3746 29.8823 75.3908 30.0195 75.3908 30.1597C75.3908 30.452 75.3231 30.7162 75.1877 30.9522C75.1158 31.0768 75.0301 31.1835 74.9307 31.2721C74.8313 31.3608 74.7132 31.4309 74.5767 31.4824C74.4353 31.5363 74.2813 31.5632 74.1148 31.5632ZM74.1148 31.3117C74.2406 31.3117 74.3562 31.2799 74.4616 31.2164C74.5683 31.1517 74.6557 31.0636 74.724 30.9522C74.7911 30.8444 74.842 30.7228 74.8768 30.5874C74.9127 30.4508 74.9307 30.3095 74.9307 30.1633C74.9307 30.0459 74.9193 29.9315 74.8966 29.82C74.875 29.7086 74.8414 29.605 74.7959 29.5091C74.6965 29.2983 74.5653 29.1521 74.4023 29.0706C74.3149 29.0275 74.219 29.0059 74.1148 29.0059C73.989 29.0059 73.8734 29.0383 73.768 29.103C73.6625 29.1665 73.5751 29.2539 73.5056 29.3654C73.4385 29.4744 73.387 29.5972 73.351 29.7338C73.3151 29.8692 73.2971 30.0099 73.2971 30.1561C73.2971 30.4041 73.3426 30.6234 73.4337 30.8138C73.4816 30.9169 73.5373 31.0049 73.6008 31.078C73.6655 31.1499 73.741 31.2062 73.8273 31.247C73.9159 31.2901 74.0118 31.3117 74.1148 31.3117ZM75.9709 31.5147V31.2577H76.404V29.067H75.9709V28.8101H76.9413L78.2191 31.0367V29.067H77.7806V28.8101H78.9739V29.067H78.5623V31.5147H78.0825L76.7472 29.1928V31.2577H77.1588V31.5147H75.9709ZM80.6552 31.5147V31.2577H81.0937V29.067H80.6552V28.8101H81.9294V29.067H81.5161V31.2577H81.9294V31.5147H80.6552ZM82.4125 31.5147V31.2577H82.8456V29.067H82.4125V28.8101H83.3829L84.6607 31.0367V29.067H84.2222V28.8101H85.4154V29.067H85.0039V31.5147H84.5241L83.1888 29.1928V31.2577H83.6004V31.5147H82.4125ZM89.3468 31.574C89.2737 31.574 89.2072 31.5609 89.1473 31.5345C89.0886 31.5093 89.0389 31.474 88.9982 31.4285C88.9598 31.3865 88.9251 31.329 88.8939 31.2559C88.8628 31.1829 88.8364 31.1032 88.8149 31.0169C88.7909 30.9187 88.7705 30.821 88.7538 30.724C88.743 30.6557 88.7244 30.5928 88.6981 30.5353C88.6717 30.4778 88.6435 30.4335 88.6136 30.4023C88.5848 30.3736 88.5543 30.349 88.5219 30.3286C88.4896 30.3083 88.4626 30.2951 88.4411 30.2891C88.4219 30.2843 88.4039 30.2819 88.3872 30.2819H87.963V31.2577H88.371V31.5147H87.1022V31.2577H87.5389V29.067H87.1022V28.8101H88.1356H88.22C88.2991 28.8101 88.365 28.8113 88.4177 28.8137C88.4716 28.8161 88.5393 28.8208 88.6208 28.828C88.7202 28.8376 88.8017 28.8508 88.8652 28.8676C88.9299 28.8843 89.0018 28.9107 89.0808 28.9466C89.1563 28.9814 89.2162 29.0233 89.2606 29.0724C89.3061 29.1204 89.3444 29.1833 89.3756 29.2611C89.4055 29.3366 89.4205 29.4241 89.4205 29.5235C89.4205 29.7332 89.3552 29.8895 89.2246 29.9926C89.1611 30.0417 89.0922 30.0818 89.0179 30.113C88.9437 30.1429 88.8544 30.1687 88.7502 30.1902C88.8197 30.2046 88.8778 30.2244 88.9245 30.2496C88.9712 30.2747 89.0108 30.3077 89.0431 30.3484C89.0731 30.3879 89.097 30.4299 89.115 30.4742C89.1342 30.5185 89.1539 30.5772 89.1743 30.6503C89.1899 30.709 89.212 30.8061 89.2408 30.9414C89.248 30.9822 89.2588 31.0241 89.2731 31.0672C89.2875 31.1104 89.3019 31.1439 89.3163 31.1679C89.3318 31.1942 89.3516 31.2158 89.3756 31.2326C89.3995 31.2494 89.4265 31.2577 89.4564 31.2577C89.5798 31.2577 89.6415 31.1445 89.6415 30.9181V30.6683H89.8842V30.9325C89.8842 31.3602 89.705 31.574 89.3468 31.574ZM88.1877 30.0123C88.3806 30.0123 88.5369 29.9986 88.6567 29.971C88.7765 29.9422 88.87 29.8943 88.9371 29.8272C89.0066 29.7589 89.0413 29.6685 89.0413 29.5559C89.0413 29.4588 89.0239 29.3785 88.9892 29.3151C88.9545 29.2516 88.8993 29.2012 88.8239 29.1641C88.7496 29.1293 88.6615 29.1048 88.5597 29.0904C88.459 29.0748 88.3303 29.067 88.1733 29.067H87.963V30.0123H88.1877ZM90.3169 31.5147V31.2577H90.759V29.067H90.3169V28.8101H92.761V29.8506H92.4357V29.067H91.1813V30.0393H91.8517V29.5972H92.0907V30.7132H91.8517V30.2442H91.1813V31.2577H92.4357V30.4886H92.761V31.5147H90.3169ZM93.307 31.5147V31.2577H93.6304L94.5775 28.8101H95.0034L95.9649 31.2577H96.2668V31.5147H95.1041V31.2577H95.5048L95.255 30.609H94.2163L93.9809 31.2577H94.4338V31.5147H93.307ZM94.3008 30.3807H95.1652L94.7213 29.1623L94.3008 30.3807ZM96.7067 31.5147V31.2577H97.1434V29.067H96.7067V28.8101H97.9791V29.067H97.5676V31.2577H98.5829V30.3915H98.919V31.5147H96.7067ZM99.7489 31.5147V31.2577H100.168V29.067H99.4793V29.9027H99.1451V28.8101H101.6V29.9027H101.264V29.067H100.592V31.2577H101.021V31.5147H99.7489ZM102.778 31.5147V31.2577H103.215V30.4454L102.439 29.067H102.072V28.8101H103.274V29.067H102.863L103.47 30.1831L104.096 29.067H103.695V28.8101H104.784V29.067H104.444L103.639 30.4544V31.2577H104.051V31.5147H102.778Z" fill="white"/>
</svg>
